{
  "accessors": [
    {
      "bufferView": 2,
      "componentType": 5126,
      "count": 506,
      "max": [
        81.6497573852539,
        74.5378646850586,
        176.67691040039063
      ],
      "min": [
        -81.6497573852539,
        -74.5378646850586,
        -16.995590209960938
      ],
      "type": "VEC3"
    },
    {
      "bufferView": 2,
      "byteOffset": 6072,
      "componentType": 5126,
      "count": 506,
      "max": [
        1.0,
        0.9857140183448792,
        1.0
      ],
      "min": [
        -1.0,
        -0.9857140183448792,
        -0.9961947798728943
      ],
      "type": "VEC3"
    },
    {
      "bufferView": 1,
      "componentType": 5126,
      "count": 506,
      "max": [
        0.9127797484397888,
        0.8977065682411194
      ],
      "min": [
        0.6565563678741455,
        0.12449454516172409
      ],
      "type": "VEC2"
    },
    {
      "bufferView": 0,
      "componentType": 5125,
      "count": 1590,
      "type": "SCALAR"
    },
    {
      "bufferView": 2,
      "byteOffset": 12144,
      "componentType": 5126,
      "count": 476,
      "max": [
        73.39265441894531,
        79.17562866210938,
        243.57882690429688
      ],
      "min": [
        32.31549835205078,
        -79.1047592163086,
        170.79495239257813
      ],
      "type": "VEC3"
    },
    {
      "bufferView": 2,
      "byteOffset": 17856,
      "componentType": 5126,
      "count": 476,
      "max": [
        0.9954102635383606,
        0.9838491082191467,
        0.9626864790916443
      ],
      "min": [
        -0.9954103231430054,
        -0.9838491082191467,
        -0.9626864790916443
      ],
      "type": "VEC3"
    },
    {
      "bufferView": 1,
      "byteOffset": 4048,
      "componentType": 5126,
      "count": 476,
      "max": [
        0.6960415244102478,
        0.9693297147750854
      ],
      "min": [
        0.07614487409591675,
        0.2517721652984619
      ],
      "type": "VEC2"
    },
    {
      "bufferView": 0,
      "byteOffset": 6360,
      "componentType": 5125,
      "count": 1728,
      "type": "SCALAR"
    },
    {
      "bufferView": 2,
      "byteOffset": 23568,
      "componentType": 5126,
      "count": 449,
      "max": [
        25.101722717285156,
        72.16480255126953,
        258.71038818359375
      ],
      "min": [
        -101.48716735839844,
        -71.46639251708984,
        -1.24420166015625
      ],
      "type": "VEC3"
    },
    {
      "bufferView": 2,
      "byteOffset": 28956,
      "componentType": 5126,
      "count": 449,
      "max": [
        0.9999842047691345,
        0.9999598264694214,
        0.9885648488998413
      ],
      "min": [
        -0.9998530745506287,
        -0.9999598264694214,
        -0.34195277094841003
      ],
      "type": "VEC3"
    },
    {
      "bufferView": 3,
      "componentType": 5126,
      "count": 449,
      "max": [
        0.9885649085044861,
        0.9928660988807678,
        0.9999842643737793,
        1.0
      ],
      "min": [
        -0.0920618399977684,
        -0.9928661584854126,
        -0.9866731762886047,
        -1.0
      ],
      "type": "VEC4"
    },
    {
      "bufferView": 1,
      "byteOffset": 7856,
      "componentType": 5126,
      "count": 449,
      "max": [
        0.8871449828147888,
        0.9764834642410278
      ],
      "min": [
        0.09680551290512085,
        0.03336208313703537
      ],
      "type": "VEC2"
    },
    {
      "bufferView": 0,
      "byteOffset": 13272,
      "componentType": 5125,
      "count": 2592,
      "type": "SCALAR"
    }
  ],
  "asset": {
    "extras": {
      "author": "Anthony Yanez (https://sketchfab.com/paulyanez)",
      "license": "CC-BY-4.0 (http://creativecommons.org/licenses/by/4.0/)",
      "source": "https://sketchfab.com/3d-models/gary-spongebob-b230a3f6ff634a8e94fa91febdc923cd",
      "title": "Gary (Spongebob)"
    },
    "generator": "Sketchfab-12.66.0",
    "version": "2.0"
  },
  "bufferViews": [
    {
      "buffer": 0,
      "byteLength": 23640,
      "name": "floatBufferViews",
      "target": 34963
    },
    {
      "buffer": 0,
      "byteLength": 11448,
      "byteOffset": 23640,
      "byteStride": 8,
      "name": "floatBufferViews",
      "target": 34962
    },
    {
      "buffer": 0,
      "byteLength": 34344,
      "byteOffset": 35088,
      "byteStride": 12,
      "name": "floatBufferViews",
      "target": 34962
    },
    {
      "buffer": 0,
      "byteLength": 7184,
      "byteOffset": 69432,
      "byteStride": 16,
      "name": "floatBufferViews",
      "target": 34962
    }
  ],
  "buffers": [
    {
      "byteLength": 76616,
      "uri": "scene.bin"
    }
  ],
  "images": [
    {
      "uri": "textures/08_-_Default_baseColor.png"
    },
    {
      "uri": "textures/13_-_Default_baseColor.png"
    },
    {
      "uri": "textures/09_-_Default_baseColor.png"
    },
    {
      "uri": "textures/09_-_Default_normal.png"
    }
  ],
  "materials": [
    {
      "doubleSided": true,
      "name": "08_-_Default",
      "pbrMetallicRoughness": {
        "baseColorTexture": {
          "index": 0
        },
        "metallicFactor": 0.1114710366,
        "roughnessFactor": 0.35804115849999996
      }
    },
    {
      "doubleSided": true,
      "name": "13_-_Default",
      "pbrMetallicRoughness": {
        "baseColorTexture": {
          "index": 1
        },
        "metallicFactor": 0.33,
        "roughnessFactor": 0.33365091459999996
      }
    },
    {
      "doubleSided": true,
      "name": "09_-_Default",
      "normalTexture": {
        "index": 3,
        "scale": 0.33
      },
      "pbrMetallicRoughness": {
        "baseColorTexture": {
          "index": 2
        },
        "metallicFactor": 0.3065929878,
        "roughnessFactor": 0.5836509146
      }
    }
  ],
  "meshes": [
    {
      "name": "Cylinder001_08 - Default_0",
      "primitives": [
        {
          "attributes": {
            "NORMAL": 1,
            "POSITION": 0,
            "TEXCOORD_0": 2
          },
          "indices": 3,
          "material": 0,
          "mode": 4
        }
      ]
    },
    {
      "name": "Cylinder001_13 - Default_0",
      "primitives": [
        {
          "attributes": {
            "NORMAL": 5,
            "POSITION": 4,
            "TEXCOORD_0": 6
          },
          "indices": 7,
          "material": 1,
          "mode": 4
        }
      ]
    },
    {
      "name": "Cylinder001_09 - Default_0",
      "primitives": [
        {
          "attributes": {
            "NORMAL": 9,
            "POSITION": 8,
            "TANGENT": 10,
            "TEXCOORD_0": 11
          },
          "indices": 12,
          "material": 2,
          "mode": 4
        }
      ]
    }
  ],
  "nodes": [
    {
      "children": [
        1
      ],
      "matrix": [
        1.0,
        0.0,
        0.0,
        0.0,
        0.0,
        2.220446049250313e-16,
        -1.0,
        0.0,
        0.0,
        1.0,
        2.220446049250313e-16,
        0.0,
        0.0,
        0.0,
        0.0,
        1.0
      ],
      "name": "Sketchfab_model"
    },
    {
      "children": [
        2
      ],
      "matrix": [
        1.0,
        0.0,
        0.0,
        0.0,
        0.0,
        0.0,
        1.0,
        0.0,
        0.0,
        -1.0,
        0.0,
        0.0,
        0.0,
        0.0,
        0.0,
        1.0
      ],
      "name": "Gary.FBX"
    },
    {
      "children": [
        3
      ],
      "name": "RootNode"
    },
    {
      "children": [
        4,
        5,
        6
      ],
      "matrix": [
        1.7795017957687378,
        0.0,
        0.0,
        0.0,
        0.0,
        2.220446049250313e-16,
        -1.0,
        0.0,
        0.0,
        1.0,
        2.220446049250313e-16,
        0.0,
        0.0,
        0.0,
        0.0,
        1.0
      ],
      "name": "Cylinder001"
    },
    {
      "mesh": 0,
      "name": "Cylinder001_08 - Default_0"
    },
    {
      "mesh": 1,
      "name": "Cylinder001_13 - Default_0"
    },
    {
      "mesh": 2,
      "name": "Cylinder001_09 - Default_0"
    }
  ],
  "samplers": [
    {
      "magFilter": 9729,
      "minFilter": 9987,
      "wrapS": 10497,
      "wrapT": 10497
    }
  ],
  "scene": 0,
  "scenes": [
    {
      "name": "Sketchfab_Scene",
      "nodes": [
        0
      ]
    }
  ],
  "textures": [
    {
      "sampler": 0,
      "source": 0
    },
    {
      "sampler": 0,
      "source": 1
    },
    {
      "sampler": 0,
      "source": 2
    },
    {
      "sampler": 0,
      "source": 3
    }
  ]
}
