{
  "accessors": [
    {
      "bufferView": 2,
      "componentType": 5126,
      "count": 35334,
      "max": [
        5.5596022605896,
        -0.10607893019914627,
        1.454416275024414
      ],
      "min": [
        -4.6211066246032715,
        -6.663055419921875,
        -1.4544315338134766
      ],
      "type": "VEC3"
    },
    {
      "bufferView": 2,
      "byteOffset": 424008,
      "componentType": 5126,
      "count": 35334,
      "max": [
        0.9999731779098511,
        1.0,
        1.0
      ],
      "min": [
        -0.9999796152114868,
        -1.0,
        -1.0
      ],
      "type": "VEC3"
    },
    {
      "bufferView": 1,
      "componentType": 5126,
      "count": 35334,
      "max": [
        0.9977800250053406,
        0.9674599766731262
      ],
      "min": [
        0.028769999742507935,
        0.01140000019222498
      ],
      "type": "VEC2"
    },
    {
      "bufferView": 0,
      "componentType": 5125,
      "count": 204288,
      "type": "SCALAR"
    },
    {
      "bufferView": 2,
      "byteOffset": 848016,
      "componentType": 5126,
      "count": 51874,
      "max": [
        6.365795612335205,
        -3.1683733463287354,
        1.7986952066421509
      ],
      "min": [
        -4.839712142944336,
        -7.349123477935791,
        -1.7986783981323242
      ],
      "type": "VEC3"
    },
    {
      "bufferView": 2,
      "byteOffset": 1470504,
      "componentType": 5126,
      "count": 51874,
      "max": [
        0.9999940395355225,
        0.99998939037323,
        1.0
      ],
      "min": [
        -0.9999940395355225,
        -0.9999276995658875,
        -1.0
      ],
      "type": "VEC3"
    },
    {
      "bufferView": 1,
      "byteOffset": 282672,
      "componentType": 5126,
      "count": 51874,
      "max": [
        0.9447799921035767,
        0.8561800122261047
      ],
      "min": [
        0.08647000044584274,
        0.08347000181674957
      ],
      "type": "VEC2"
    },
    {
      "bufferView": 0,
      "byteOffset": 817152,
      "componentType": 5125,
      "count": 310992,
      "type": "SCALAR"
    }
  ],
  "asset": {
    "extras": {
      "author": "Veysel Gök (https://sketchfab.com/veysel.gok.vg)",
      "license": "CC-BY-4.0 (http://creativecommons.org/licenses/by/4.0/)",
      "source": "https://sketchfab.com/3d-models/cat-dog-kedi-kopek-high-poly-4d90b06bc268478abe8190a99a6b2318",
      "title": "Cat Dog - Kedi Köpek (High Poly)"
    },
    "generator": "Sketchfab-12.67.0",
    "version": "2.0"
  },
  "bufferViews": [
    {
      "buffer": 0,
      "byteLength": 2061120,
      "name": "floatBufferViews",
      "target": 34963
    },
    {
      "buffer": 0,
      "byteLength": 697664,
      "byteOffset": 2061120,
      "byteStride": 8,
      "name": "floatBufferViews",
      "target": 34962
    },
    {
      "buffer": 0,
      "byteLength": 2092992,
      "byteOffset": 2758784,
      "byteStride": 12,
      "name": "floatBufferViews",
      "target": 34962
    }
  ],
  "buffers": [
    {
      "byteLength": 4851776,
      "uri": "scene.bin"
    }
  ],
  "extensionsUsed": [
    "KHR_materials_unlit"
  ],
  "images": [
    {
      "uri": "textures/catdog_body_baseColor.png"
    },
    {
      "uri": "textures/catdog_eye_baseColor.png"
    }
  ],
  "materials": [
    {
      "doubleSided": true,
      "extensions": {
        "KHR_materials_unlit": {}
      },
      "name": "catdog_body",
      "pbrMetallicRoughness": {
        "baseColorTexture": {
          "index": 0
        },
        "metallicFactor": 0.0
      }
    },
    {
      "doubleSided": true,
      "extensions": {
        "KHR_materials_unlit": {}
      },
      "name": "catdog_eye",
      "pbrMetallicRoughness": {
        "baseColorTexture": {
          "index": 1
        },
        "metallicFactor": 0.0
      }
    }
  ],
  "meshes": [
    {
      "name": "catdog_body_catdog_body_0",
      "primitives": [
        {
          "attributes": {
            "NORMAL": 1,
            "POSITION": 0,
            "TEXCOORD_0": 2
          },
          "indices": 3,
          "material": 0,
          "mode": 4
        }
      ]
    },
    {
      "name": "catdog_eye_catdog_eye_0",
      "primitives": [
        {
          "attributes": {
            "NORMAL": 5,
            "POSITION": 4,
            "TEXCOORD_0": 6
          },
          "indices": 7,
          "material": 1,
          "mode": 4
        }
      ]
    }
  ],
  "nodes": [
    {
      "children": [
        1
      ],
      "matrix": [
        1.0,
        -1.6081226229577284e-16,
        -2.8327693431939995e-16,
        0.0,
        -2.832769343193999e-16,
        3.828568672208042e-16,
        -1.0,
        0.0,
        1.6081226229577292e-16,
        1.0,
        3.828568672208042e-16,
        0.0,
        -5.3290705182007514e-15,
        -6.951494242457558e-07,
        4.91018568027357e-07,
        1.0
      ],
      "name": "Sketchfab_model"
    },
    {
      "children": [
        2
      ],
      "matrix": [
        1.0,
        0.0,
        0.0,
        0.0,
        0.0,
        0.0,
        1.0,
        0.0,
        0.0,
        -1.0,
        0.0,
        0.0,
        0.0,
        0.0,
        0.0,
        1.0
      ],
      "name": "85caaf3228264004971a121aa41bce9f.fbx"
    },
    {
      "children": [
        3
      ],
      "name": "RootNode"
    },
    {
      "children": [
        4,
        6
      ],
      "matrix": [
        9.167988777160645,
        0.0,
        0.0,
        0.0,
        0.0,
        2.0357024459817562e-15,
        -9.167988777160645,
        0.0,
        0.0,
        9.167988777160645,
        2.0357024459817562e-15,
        0.0,
        0.5241836309432983,
        32.834716796875,
        -2.446819780743681e-05,
        1.0
      ],
      "name": "CatDog"
    },
    {
      "children": [
        5
      ],
      "matrix": [
        1.0,
        0.0,
        0.0,
        0.0,
        -0.0,
        -1.6292068050205444e-07,
        -0.9999999999999868,
        0.0,
        0.0,
        0.9999999999999868,
        -1.6292068050205444e-07,
        0.0,
        -0.7630416750907898,
        -8.64267349243164e-06,
        -3.7276010513305664,
        1.0
      ],
      "name": "catdog_body"
    },
    {
      "mesh": 0,
      "name": "catdog_body_catdog_body_0"
    },
    {
      "children": [
        7
      ],
      "matrix": [
        1.0,
        0.0,
        0.0,
        0.0,
        -0.0,
        -1.6292068050205444e-07,
        -0.9999999999999868,
        0.0,
        0.0,
        0.9999999999999868,
        -1.6292068050205444e-07,
        0.0,
        -0.7630416750907898,
        -8.64267349243164e-06,
        -3.7276010513305664,
        1.0
      ],
      "name": "catdog_eye"
    },
    {
      "mesh": 1,
      "name": "catdog_eye_catdog_eye_0"
    }
  ],
  "samplers": [
    {
      "magFilter": 9729,
      "minFilter": 9987,
      "wrapS": 10497,
      "wrapT": 10497
    }
  ],
  "scene": 0,
  "scenes": [
    {
      "name": "Sketchfab_Scene",
      "nodes": [
        0
      ]
    }
  ],
  "textures": [
    {
      "sampler": 0,
      "source": 0
    },
    {
      "sampler": 0,
      "source": 1
    }
  ]
}
