{
  "accessors": [
    {
      "bufferView": 2,
      "componentType": 5126,
      "count": 53904,
      "max": [
        98.50829315185547,
        8.315152168273926,
        41.510616302490234
      ],
      "min": [
        80.20834350585938,
        -5.709860801696777,
        18.33917999267578
      ],
      "type": "VEC3"
    },
    {
      "bufferView": 2,
      "byteOffset": 646848,
      "componentType": 5126,
      "count": 53904,
      "max": [
        0.9999942779541016,
        0.9999876618385315,
        0.9999693036079407
      ],
      "min": [
        -0.9998776316642761,
        -1.0,
        -0.9999895095825195
      ],
      "type": "VEC3"
    },
    {
      "bufferView": 1,
      "componentType": 5126,
      "count": 53904,
      "max": [
        0.9994999766349792,
        0.9993169903755188
      ],
      "min": [
        0.0005000000237487257,
        0.0005000000237487257
      ],
      "type": "VEC2"
    },
    {
      "bufferView": 0,
      "componentType": 5125,
      "count": 270600,
      "type": "SCALAR"
    }
  ],
  "asset": {
    "extras": {
      "author": "apirozkov1988 (https://sketchfab.com/apirozkov1988)",
      "license": "CC-BY-4.0 (http://creativecommons.org/licenses/by/4.0/)",
      "source": "https://sketchfab.com/3d-models/teenaje-mutant-ninja-turtle-chibi-d6ea7c9a89eb4979a0d7f0fddeb3f680",
      "title": "Teenaje Mutant Ninja Turtle. chibi"
    },
    "generator": "Sketchfab-12.67.0",
    "version": "2.0"
  },
  "bufferViews": [
    {
      "buffer": 0,
      "byteLength": 1082400,
      "name": "floatBufferViews",
      "target": 34963
    },
    {
      "buffer": 0,
      "byteLength": 431232,
      "byteOffset": 1082400,
      "byteStride": 8,
      "name": "floatBufferViews",
      "target": 34962
    },
    {
      "buffer": 0,
      "byteLength": 1293696,
      "byteOffset": 1513632,
      "byteStride": 12,
      "name": "floatBufferViews",
      "target": 34962
    }
  ],
  "buffers": [
    {
      "byteLength": 2807328,
      "uri": "scene.bin"
    }
  ],
  "images": [
    {
      "uri": "textures/wire_000000000_baseColor.png"
    }
  ],
  "materials": [
    {
      "doubleSided": true,
      "name": "wire_000000000",
      "pbrMetallicRoughness": {
        "baseColorTexture": {
          "index": 0
        },
        "metallicFactor": 0.0,
        "roughnessFactor": 0.6
      }
    }
  ],
  "meshes": [
    {
      "name": "Object_0",
      "primitives": [
        {
          "attributes": {
            "NORMAL": 1,
            "POSITION": 0,
            "TEXCOORD_0": 2
          },
          "indices": 3,
          "material": 0,
          "mode": 4
        }
      ]
    }
  ],
  "nodes": [
    {
      "children": [
        1
      ],
      "matrix": [
        1.0,
        0.0,
        0.0,
        0.0,
        0.0,
        2.220446049250313e-16,
        -1.0,
        0.0,
        0.0,
        1.0,
        2.220446049250313e-16,
        0.0,
        0.0,
        0.0,
        0.0,
        1.0
      ],
      "name": "Sketchfab_model"
    },
    {
      "children": [
        2
      ],
      "name": "1.obj.cleaner.materialmerger.gles"
    },
    {
      "mesh": 0,
      "name": "Object_2"
    }
  ],
  "samplers": [
    {
      "magFilter": 9729,
      "minFilter": 9987,
      "wrapS": 10497,
      "wrapT": 10497
    }
  ],
  "scene": 0,
  "scenes": [
    {
      "name": "Sketchfab_Scene",
      "nodes": [
        0
      ]
    }
  ],
  "textures": [
    {
      "sampler": 0,
      "source": 0
    }
  ]
}
