<svg height="26" viewBox="0 0 294 100" fill="none" xmlns="http://www.w3.org/2000/svg" role="img" focusable="false"
     aria-label="Pluto TV">
    <title id="plutoTVLogoAlternateText">Pluto TV</title>
    <path d="M259.37 15.9182C240.546 15.9182 225.289 31.1758 225.289 50C225.289 68.8242 240.546 84.0818 259.37 84.0818C278.195 84.0818 293.452 68.8242 293.452 50C293.452 31.1758 278.195 15.9182 259.37 15.9182ZM259.37 65.6506C250.723 65.6506 243.72 58.6427 243.72 50C243.72 41.3573 250.728 34.3452 259.37 34.3452C268.013 34.3452 275.021 41.3531 275.021 50C275.021 58.6469 268.013 65.6506 259.37 65.6506ZM204.737 34.7675V55.8747C204.737 62.3432 207.623 65.2325 214.095 65.2325H220.618V82.7939H211.126C203.236 82.7939 196.739 80.4775 192.344 76.0997C187.954 71.726 185.629 65.2659 185.629 57.426V34.7717H173.871V17.2102H185.629V7.72286L204.742 0V17.2102H220.618V34.7717H204.742L204.737 34.7675ZM166.387 17.2186V53.0983C166.387 70.2082 152.517 84.0818 135.403 84.0818C118.289 84.0818 104.42 70.2124 104.42 53.0983V25.6021L123.399 17.9336V53.6503C123.399 60.2776 128.772 65.6548 135.403 65.6548C142.035 65.6548 147.408 60.2818 147.408 53.6503V24.8871L166.387 17.2186ZM96.2034 0V82.7898H77.0948V7.72286L96.2034 0ZM37.8826 15.9266C29.8963 15.9266 23.1268 18.6235 18.0883 23.7707L15.4499 17.3859L0 23.6285V100H19.1044V77.4461C24.0759 81.9326 30.511 84.0776 37.8826 84.0776C46.6131 84.0776 54.6705 80.5319 60.5703 74.0885C66.374 67.7496 69.5727 59.2198 69.5727 50.0669C69.5727 30.9207 55.6531 15.9266 37.8826 15.9266ZM34.9599 65.6548C26.1791 65.6548 19.0584 58.6469 19.0584 50.0042C19.0584 41.3614 26.1791 34.3494 34.9599 34.3494C43.7406 34.3494 50.8613 41.3573 50.8613 50.0042C50.8613 58.6511 43.7406 65.6548 34.9599 65.6548Z"
          fill="white"></path>
</svg>
